<svg id="mermaidChart86" width="100%" xmlns="http://www.w3.org/2000/svg" height="100%" style="max-width:650px;" viewBox="-50 -10 650 691"><style type="text/css" title="mermaid-svg-internal-css">/*  */
*, ::before, ::after { box-sizing: inherit;}
.actor { stroke: rgb(204, 204, 255); fill: rgb(226, 236, 255);}
text.actor { fill: black; stroke: none; font-size: 12px;}
.actor-line { stroke: grey;}
.messageLine0 { stroke-width: 1.5; stroke: black;}
.messageLine1 { stroke-width: 1.5; stroke: black;}
#arrowhead { fill: black;}
.messageText { fill: black; stroke: none; font-size: 12px;}
.labelBox { stroke: rgb(204, 204, 255); fill: rgb(236, 236, 255);}
.labelText { fill: black; stroke: none;}
.loopText { fill: black; stroke: none;}
.loopLine { stroke-width: 2; stroke: rgb(204, 204, 255);}
.actor { stroke: rgb(204, 204, 255); fill: rgb(236, 236, 255);}
text.actor { fill: black; stroke: none;}
.actor-line { stroke: grey;}
.messageLine0 { stroke-width: 1.5; stroke: rgb(51, 51, 51);}
.messageLine1 { stroke-width: 1.5; stroke: rgb(51, 51, 51);}
#arrowhead { fill: rgb(51, 51, 51);}
#crosshead path { fill: rgb(51, 51, 51) !important; stroke: rgb(51, 51, 51) !important;}
.messageText { fill: rgb(51, 51, 51); stroke: none;}
.labelBox { stroke: rgb(204, 204, 255); fill: rgb(236, 236, 255);}
.labelText { fill: black; stroke: none;}
.loopText { fill: black; stroke: none;}
.loopLine { stroke-width: 2; stroke: rgb(204, 204, 255);}
text { font-family: "trebuchet ms", verdana, arial; font-size: 14px;}
/*  */
</style><g></g><g><line id="actor258" x1="75" y1="5" x2="75" y2="680" class="actor-line" stroke-width="0.5px" stroke="#999"></line><rect x="0" y="0" fill="#eaeaea" stroke="#666" width="150" height="65" rx="3" ry="3" class="actor"></rect><text x="75" y="37.5" class="actor" style="text-anchor: middle;">Client</text></g><g><line id="actor259" x1="275" y1="5" x2="275" y2="680" class="actor-line" stroke-width="0.5px" stroke="#999"></line><rect x="200" y="0" fill="#eaeaea" stroke="#666" width="150" height="65" rx="3" ry="3" class="actor"></rect><text x="275" y="37.5" class="actor" style="text-anchor: middle;">payment.checkout.fi</text></g><g><line id="actor260" x1="475" y1="5" x2="475" y2="680" class="actor-line" stroke-width="0.5px" stroke="#999"></line><rect x="400" y="0" fill="#eaeaea" stroke="#666" width="150" height="65" rx="3" ry="3" class="actor"></rect><text x="475" y="37.5" class="actor" style="text-anchor: middle;">Payment Highway</text></g><defs><marker id="arrowhead" refX="5" refY="2" markerWidth="6" markerHeight="4" orient="auto"><path d="M 0,0 V 4 L6,2 Z"></path></marker></defs><defs><marker id="crosshead" markerWidth="15" markerHeight="8" orient="auto" refX="16" refY="4"><path fill="black" stroke="#000000" stroke-width="1px" d="M 9,2 V 6 L16,4 Z" style="stroke-dasharray: 0, 0;"></path><path fill="none" stroke="#000000" stroke-width="1px" d="M 0,1 L 6,7 M 6,1 L 0,7" style="stroke-dasharray: 0, 0;"></path></marker></defs><g><text x="175" y="93" class="messageText" style="text-anchor: middle;">POST : /token/card/add</text><line x1="75" y1="100" x2="275" y2="100" class="messageLine0" stroke-width="2" stroke="black" marker-end="url(#arrowhead)" style="fill: none;"></line></g><g><rect x="270" y="102" fill="#f4f4f4" stroke="#666" width="10" height="103" rx="0" ry="0"></rect></g><g><text x="377.5" y="128" class="messageText" style="text-anchor: middle;">Get form from PH</text><line x1="280" y1="135" x2="475" y2="135" class="messageLine1" stroke-width="2" stroke="black" marker-end="url(#arrowhead)" style="stroke-dasharray: 3, 3; fill: none;"></line></g><g><rect x="470" y="137" fill="#f4f4f4" stroke="#666" width="10" height="33" rx="0" ry="0"></rect></g><g><text x="375" y="163" class="messageText" style="text-anchor: middle;">form</text><line x1="470" y1="170" x2="280" y2="170" class="messageLine1" stroke-width="2" stroke="black" marker-end="url(#arrowhead)" style="stroke-dasharray: 3, 3; fill: none;"></line></g><g><text x="172.5" y="198" class="messageText" style="text-anchor: middle;">200 : HTML form</text><line x1="270" y1="205" x2="75" y2="205" class="messageLine0" stroke-width="2" stroke="black" marker-end="url(#arrowhead)" style="fill: none;"></line></g><g><text x="275" y="258" class="messageText" style="text-anchor: middle;">POST : Submit form</text><line x1="75" y1="265" x2="475" y2="265" class="messageLine0" stroke-width="2" stroke="black" marker-end="url(#arrowhead)" style="fill: none;"></line></g><g><rect x="470" y="292" fill="#f4f4f4" stroke="#666" width="10" height="33" rx="0" ry="0"></rect></g><g><text x="372.5" y="318" class="messageText" style="text-anchor: middle;">303 : Redirect CO success</text><line x1="470" y1="325" x2="275" y2="325" class="messageLine1" stroke-width="2" stroke="black" marker-end="url(#arrowhead)" style="stroke-dasharray: 3, 3; fill: none;"></line></g><g><rect x="270" y="327" fill="#f4f4f4" stroke="#666" width="10" height="33" rx="0" ry="0"></rect></g><g><text x="172.5" y="353" class="messageText" style="text-anchor: middle;">302 : Redirect client success</text><line x1="270" y1="360" x2="75" y2="360" class="messageLine0" stroke-width="2" stroke="black" marker-end="url(#crosshead)" style="fill: none;"></line></g><g><rect x="470" y="382" fill="#f4f4f4" stroke="#666" width="10" height="33" rx="0" ry="0"></rect></g><g><text x="372.5" y="408" class="messageText" style="text-anchor: middle;">303 : Redirect CO failure</text><line x1="470" y1="415" x2="275" y2="415" class="messageLine1" stroke-width="2" stroke="black" marker-end="url(#arrowhead)" style="stroke-dasharray: 3, 3; fill: none;"></line></g><g><rect x="270" y="417" fill="#f4f4f4" stroke="#666" width="10" height="33" rx="0" ry="0"></rect></g><g><text x="172.5" y="443" class="messageText" style="text-anchor: middle;">302 : Redirect client failure</text><line x1="270" y1="450" x2="75" y2="450" class="messageLine0" stroke-width="2" stroke="black" marker-end="url(#crosshead)" style="fill: none;"></line></g><g><line x1="65" y1="275" x2="490" y2="275" stroke-width="2" stroke="#526e52" class="loopLine"></line><line x1="490" y1="275" x2="490" y2="460" stroke-width="2" stroke="#526e52" class="loopLine"></line><line x1="65" y1="460" x2="490" y2="460" stroke-width="2" stroke="#526e52" class="loopLine"></line><line x1="65" y1="275" x2="65" y2="460" stroke-width="2" stroke="#526e52" class="loopLine"></line><line x1="65" y1="370" x2="490" y2="370" stroke-width="2" stroke="#526e52" class="loopLine"></line><rect x="65" y="275" fill="#526e52" stroke="none" width="50" height="20" rx="0" ry="0" class="labelBox"></rect><text x="72.5" y="290" fill="white" class="labelText"><tspan x="72.5">alt</tspan></text><text x="277.5" y="290" fill="black" class="loopText" style="text-anchor: middle;"><tspan x="277.5">[ Success ]</tspan></text><text x="277.5" y="385" fill="black" class="loopText" style="text-anchor: middle;"><tspan x="277.5">[ Failure ]</tspan></text></g><g><text x="275" y="508" class="messageText" style="text-anchor: middle;">GET : Cancel form</text><line x1="75" y1="515" x2="475" y2="515" class="messageLine0" stroke-width="2" stroke="black" marker-end="url(#arrowhead)" style="fill: none;"></line></g><g><rect x="470" y="517" fill="#f4f4f4" stroke="#666" width="10" height="33" rx="0" ry="0"></rect></g><g><text x="372.5" y="543" class="messageText" style="text-anchor: middle;">303 : Redirect CO cancel</text><line x1="470" y1="550" x2="275" y2="550" class="messageLine1" stroke-width="2" stroke="black" marker-end="url(#arrowhead)" style="stroke-dasharray: 3, 3; fill: none;"></line></g><g><rect x="270" y="552" fill="#f4f4f4" stroke="#666" width="10" height="33" rx="0" ry="0"></rect></g><g><text x="172.5" y="578" class="messageText" style="text-anchor: middle;">302 : Redirect client cancel</text><line x1="270" y1="585" x2="75" y2="585" class="messageLine0" stroke-width="2" stroke="black" marker-end="url(#crosshead)" style="fill: none;"></line></g><g><line x1="55" y1="215" x2="500" y2="215" stroke-width="2" stroke="#526e52" class="loopLine"></line><line x1="500" y1="215" x2="500" y2="595" stroke-width="2" stroke="#526e52" class="loopLine"></line><line x1="55" y1="595" x2="500" y2="595" stroke-width="2" stroke="#526e52" class="loopLine"></line><line x1="55" y1="215" x2="55" y2="595" stroke-width="2" stroke="#526e52" class="loopLine"></line><line x1="55" y1="470" x2="500" y2="470" stroke-width="2" stroke="#526e52" class="loopLine"></line><rect x="55" y="215" fill="#526e52" stroke="none" width="50" height="20" rx="0" ry="0" class="labelBox"></rect><text x="62.5" y="230" fill="white" class="labelText"><tspan x="62.5">alt</tspan></text><text x="277.5" y="230" fill="black" class="loopText" style="text-anchor: middle;"><tspan x="277.5">[ Submit form ]</tspan></text><text x="277.5" y="485" fill="black" class="loopText" style="text-anchor: middle;"><tspan x="277.5">[ Cancel form ]</tspan></text></g><g><rect x="0" y="615" fill="#eaeaea" stroke="#666" width="150" height="65" rx="3" ry="3" class="actor"></rect><text x="75" y="652.5" class="actor" style="text-anchor: middle;">Client</text></g><g><rect x="200" y="615" fill="#eaeaea" stroke="#666" width="150" height="65" rx="3" ry="3" class="actor"></rect><text x="275" y="652.5" class="actor" style="text-anchor: middle;">payment.checkout.fi</text></g><g><rect x="400" y="615" fill="#eaeaea" stroke="#666" width="150" height="65" rx="3" ry="3" class="actor"></rect><text x="475" y="652.5" class="actor" style="text-anchor: middle;">Payment Highway</text></g></svg>